REM DIRINDEX 1\2,1\3,1\4,1\5
REM DIRNAME folder01,folder02,folder03,folder04,folder05
TITLE ""
FILE "P1Q_t_0660-0669.mp3" MP3
  TRACK 01 AUDIO
    TITLE "3:cjc005_2883"
    INDEX 01 00:00:00
  TRACK 02 AUDIO
    TITLE "0:"
    INDEX 01 00:00:72
  TRACK 03 AUDIO
    TITLE "4:cjc005_2884"
    INDEX 01 00:01:22
  TRACK 04 AUDIO
    TITLE "0:"
    INDEX 01 00:02:49
  TRACK 05 AUDIO
    TITLE "5:cjc005_2885"
    INDEX 01 00:02:73
  TRACK 06 AUDIO
    TITLE "0:"
    INDEX 01 00:06:16
  TRACK 07 AUDIO
    TITLE "3:cjc005_2886"
    INDEX 01 00:06:67
  TRACK 08 AUDIO
    TITLE "0:"
    INDEX 01 00:07:70
  TRACK 09 AUDIO
    TITLE "4:cjc005_2887"
    INDEX 01 00:08:21
  TRACK 10 AUDIO
    TITLE "0:"
    INDEX 01 00:09:65
  TRACK 11 AUDIO
    TITLE "5:cjc005_2888"
    INDEX 01 00:10:18
  TRACK 12 AUDIO
    TITLE "0:"
    INDEX 01 00:13:24
  TRACK 13 AUDIO
    TITLE "3:cjc005_2889"
    INDEX 01 00:13:73
  TRACK 14 AUDIO
    TITLE "0:"
    INDEX 01 00:15:07
  TRACK 15 AUDIO
    TITLE "4:cjc005_2890"
    INDEX 01 00:15:36
  TRACK 16 AUDIO
    TITLE "0:"
    INDEX 01 00:16:63
  TRACK 17 AUDIO
    TITLE "5:cjc005_2891"
    INDEX 01 00:17:08
  TRACK 18 AUDIO
    TITLE "0:"
    INDEX 01 00:19:63
  TRACK 19 AUDIO
    TITLE "3:cjc005_2892"
    INDEX 01 00:20:41
  TRACK 20 AUDIO
    TITLE "0:"
    INDEX 01 00:21:60
  TRACK 21 AUDIO
    TITLE "4:cjc005_2893"
    INDEX 01 00:22:15
  TRACK 22 AUDIO
    TITLE "0:"
    INDEX 01 00:23:51
  TRACK 23 AUDIO
    TITLE "5:cjc005_2894"
    INDEX 01 00:23:71
  TRACK 24 AUDIO
    TITLE "0:"
    INDEX 01 00:27:36
  TRACK 25 AUDIO
    TITLE "3:cjc005_2895"
    INDEX 01 00:28:15
  TRACK 26 AUDIO
    TITLE "0:"
    INDEX 01 00:29:29
  TRACK 27 AUDIO
    TITLE "4:cjc005_2896"
    INDEX 01 00:29:52
  TRACK 28 AUDIO
    TITLE "0:"
    INDEX 01 00:30:63
  TRACK 29 AUDIO
    TITLE "5:cjc005_2897"
    INDEX 01 00:31:10
  TRACK 30 AUDIO
    TITLE "0:"
    INDEX 01 00:34:53
  TRACK 31 AUDIO
    TITLE "3:cjc005_2898"
    INDEX 01 00:35:31
  TRACK 32 AUDIO
    TITLE "0:"
    INDEX 01 00:36:38
  TRACK 33 AUDIO
    TITLE "4:cjc005_2899"
    INDEX 01 00:36:62
  TRACK 34 AUDIO
    TITLE "0:"
    INDEX 01 00:37:71
  TRACK 35 AUDIO
    TITLE "5:cjc005_2900"
    INDEX 01 00:38:22
  TRACK 36 AUDIO
    TITLE "0:"
    INDEX 01 00:42:35
  TRACK 37 AUDIO
    TITLE "3:cjc005_2901"
    INDEX 01 00:43:09
  TRACK 38 AUDIO
    TITLE "0:"
    INDEX 01 00:44:16
  TRACK 39 AUDIO
    TITLE "4:cjc005_2902"
    INDEX 01 00:44:44
  TRACK 40 AUDIO
    TITLE "0:"
    INDEX 01 00:46:13
  TRACK 41 AUDIO
    TITLE "5:cjc005_2903"
    INDEX 01 00:46:45
  TRACK 42 AUDIO
    TITLE "0:"
    INDEX 01 00:49:59
  TRACK 43 AUDIO
    TITLE "3:cjc005_2904"
    INDEX 01 00:50:39
  TRACK 44 AUDIO
    TITLE "0:"
    INDEX 01 00:51:56
  TRACK 45 AUDIO
    TITLE "4:cjc005_2905"
    INDEX 01 00:52:04
  TRACK 46 AUDIO
    TITLE "0:"
    INDEX 01 00:53:31
  TRACK 47 AUDIO
    TITLE "5:cjc005_2906"
    INDEX 01 00:53:55
  TRACK 48 AUDIO
    TITLE "0:"
    INDEX 01 00:57:33
  TRACK 49 AUDIO
    TITLE "3:cjc005_2907"
    INDEX 01 00:58:13
  TRACK 50 AUDIO
    TITLE "0:"
    INDEX 01 00:59:32
  TRACK 51 AUDIO
    TITLE "4:cjc005_2908"
    INDEX 01 00:59:61
  TRACK 52 AUDIO
    TITLE "0:"
    INDEX 01 01:00:55
  TRACK 53 AUDIO
    TITLE "5:cjc005_2909"
    INDEX 01 01:01:01
  TRACK 54 AUDIO
    TITLE "0:"
    INDEX 01 01:04:33
  TRACK 55 AUDIO
    TITLE "3:cjc005_2910"
    INDEX 01 01:05:13
  TRACK 56 AUDIO
    TITLE "0:"
    INDEX 01 01:06:14
  TRACK 57 AUDIO
    TITLE "4:cjc005_2911"
    INDEX 01 01:06:45
  TRACK 58 AUDIO
    TITLE "0:"
    INDEX 01 01:07:57
  TRACK 59 AUDIO
    TITLE "5:cjc005_2912"
    INDEX 01 01:08:09
  TRACK 60 AUDIO
    TITLE "0:"
    INDEX 01 01:10:47
